<?xml version="1.0" encoding="UTF-8" standalone="no"?>
<svg
   xmlns:dc="http://purl.org/dc/elements/1.1/"
   xmlns:cc="http://creativecommons.org/ns#"
   xmlns:rdf="http://www.w3.org/1999/02/22-rdf-syntax-ns#"
   xmlns:svg="http://www.w3.org/2000/svg"
   xmlns="http://www.w3.org/2000/svg"
   xmlns:sodipodi="http://sodipodi.sourceforge.net/DTD/sodipodi-0.dtd"
   xmlns:inkscape="http://www.inkscape.org/namespaces/inkscape"
   width="24"
   height="24"
   fill-rule="evenodd"
   clip-rule="evenodd"
   version="1.1"
   id="svg835"
   sodipodi:docname="ooh-fa-fa.svg"
   inkscape:version="1.0.2 (e86c8708, 2021-01-15)">
  <metadata
     id="metadata841">
    <rdf:RDF>
      <cc:Work
         rdf:about="">
        <dc:format>image/svg+xml</dc:format>
        <dc:type
           rdf:resource="http://purl.org/dc/dcmitype/StillImage" />
      </cc:Work>
    </rdf:RDF>
  </metadata>
  <defs
     id="defs839" />
  <sodipodi:namedview
     pagecolor="#ffffff"
     bordercolor="#666666"
     borderopacity="1"
     objecttolerance="10"
     gridtolerance="10"
     guidetolerance="10"
     inkscape:pageopacity="0"
     inkscape:pageshadow="2"
     inkscape:window-width="1393"
     inkscape:window-height="834"
     id="namedview837"
     showgrid="false"
     inkscape:zoom="25.75"
     inkscape:cx="12"
     inkscape:cy="12"
     inkscape:window-x="0"
     inkscape:window-y="25"
     inkscape:window-maximized="0"
     inkscape:current-layer="svg835" />
  <path
     d="M1.604 24c1.853-2.784 7.647-8.21 13.919-9.494l.525 3.276c-3.773.264-9.01 2.523-14.444 6.218zm-1.604-1c2.037-2.653 6.013-6.906 6.226-15.092l-3.271.561c.418 4.888-1.546 10.626-2.955 14.531zm20.827-11.423l.802 2.4 2.371.883-2.035 1.504-.107 2.528-2.06-1.471-2.437.68.763-2.413-1.4-2.109 2.531-.02 1.572-1.982zm-11.911 3.677h-.018c-.268 0-.49-.213-.499-.483-.098-2.877.511-4.87 3.798-5.24 1.953-.219 2.029-1.116 2.135-2.357.099-1.171.235-2.775 2.737-2.959 1.23-.09 1.908-.307 2.267-.725.407-.475.528-1.357.403-2.948-.022-.275.184-.516.459-.538.254-.019.516.184.537.46.151 1.906-.035 2.972-.64 3.678-.556.647-1.411.957-2.953 1.07-1.651.122-1.712.846-1.814 2.046-.106 1.247-.251 2.956-3.02 3.267-2.33.262-3.011 1.247-2.91 4.212.01.276-.207.507-.482.517zm12.084-9.254c1.104 0 2 .896 2 2s-.896 2-2 2-2-.896-2-2 .896-2 2-2zm-13.715-4.058l-2.531.017-1.601-1.959-.766 2.412-2.359.918 2.058 1.473.144 2.527 2.037-1.501 2.447.643-.798-2.401 1.369-2.129zm3.715.058c1.104 0 2 .896 2 2s-.896 2-2 2-2-.896-2-2 .896-2 2-2z"
     id="path833"
     style="fill:#8d4bff;fill-opacity:1"
     inkscape:export-xdpi="2048"
     inkscape:export-ydpi="2048" />
</svg>
